# Blender v3.0.0 OBJ File: '43424_autosave.blend'
# www.blender.org
mtllib skin.mtl
o Cube_Cube.029
v -0.414887 2.698493 0.559997
v -0.414887 3.528267 0.559997
v -0.414887 2.698493 -0.269777
v -0.414887 3.528267 -0.269777
v 0.414887 2.698493 0.559997
v 0.414887 3.528267 0.559997
v 0.414887 2.698493 -0.269777
v 0.414887 3.528267 -0.269777
v -0.117043 2.442596 0.262153
v -0.117043 2.738740 0.262153
v -0.117043 2.442596 0.028067
v -0.117043 2.738740 0.028067
v 0.117043 2.442596 0.262153
v 0.117043 2.738740 0.262153
v 0.117043 2.442596 0.028067
v 0.117043 2.738740 0.028067
v -0.315896 1.860189 0.369926
v -0.315896 2.464139 0.369926
v -0.315896 1.860189 -0.079706
v -0.315896 2.464139 -0.079706
v 0.315896 1.860189 0.369926
v 0.315896 2.464139 0.369926
v 0.315896 1.860189 -0.079706
v 0.315896 2.464139 -0.079706
v 1.387030 2.093315 0.300262
v 1.460257 2.403831 0.300262
v 1.387030 2.093315 -0.018771
v 1.460257 2.403831 -0.018771
v 1.697546 2.020089 0.300262
v 1.770773 2.330605 0.300262
v 1.697546 2.020089 -0.018771
v 1.770773 2.330605 -0.018771
v 0.306174 2.219707 0.247828
v 0.320333 2.478181 0.247828
v 0.306174 2.219707 0.006540
v 0.320333 2.478181 0.006540
v 0.863564 2.189174 0.247828
v 0.877723 2.447648 0.247828
v 0.863564 2.189174 0.006540
v 0.877723 2.447648 0.006540
v 0.870022 2.193331 0.237361
v 0.898939 2.427959 0.237361
v 0.870022 2.193331 0.017007
v 0.898939 2.427959 0.017007
v 1.375989 2.130970 0.237361
v 1.404907 2.365599 0.237361
v 1.375989 2.130970 0.017007
v 1.404907 2.365599 0.017007
v -1.387031 2.093315 0.300262
v -1.460257 2.403831 0.300262
v -1.387031 2.093315 -0.018771
v -1.460257 2.403831 -0.018771
v -1.697547 2.020089 0.300262
v -1.770773 2.330605 0.300262
v -1.697547 2.020089 -0.018771
v -1.770773 2.330605 -0.018771
v -0.306175 2.219707 0.247828
v -0.320334 2.478181 0.247828
v -0.306175 2.219707 0.006540
v -0.320334 2.478181 0.006540
v -0.863565 2.189174 0.247828
v -0.877724 2.447648 0.247828
v -0.863565 2.189174 0.006540
v -0.877724 2.447648 0.006540
v -0.870022 2.193331 0.237361
v -0.898940 2.427959 0.237361
v -0.870022 2.193331 0.017007
v -0.898940 2.427959 0.017007
v -1.375989 2.130970 0.237361
v -1.404908 2.365599 0.237361
v -1.375989 2.130970 0.017007
v -1.404908 2.365599 0.017007
v -0.315896 1.324528 0.369926
v -0.315896 1.804233 0.369926
v -0.315896 1.324528 -0.079706
v -0.315896 1.804233 -0.079706
v 0.315896 1.324528 0.369926
v 0.315896 1.804233 0.369926
v 0.315896 1.324528 -0.079706
v 0.315896 1.804233 -0.079706
v -0.427395 0.765542 0.180520
v -0.396911 1.213740 0.310697
v -0.427395 0.867921 -0.171971
v -0.396911 1.316119 -0.041794
v -0.061605 0.736267 0.172018
v -0.031121 1.184466 0.302194
v -0.061605 0.838646 -0.180474
v -0.031121 1.286845 -0.050297
v -0.523692 0.182167 0.121104
v -0.484323 0.742557 0.140705
v -0.522518 0.194919 -0.245830
v -0.483148 0.755309 -0.226229
v -0.157371 0.150920 0.121191
v -0.118002 0.711311 0.140792
v -0.156196 0.163672 -0.245743
v -0.116827 0.724063 -0.226142
v -0.478897 -0.034848 0.362249
v -0.473874 0.113557 0.367734
v -0.476173 -0.005280 -0.235379
v -0.471149 0.143125 -0.229894
v -0.113808 -0.024603 0.362336
v -0.108784 0.082416 0.367821
v -0.111084 0.004965 -0.235293
v -0.106060 0.111983 -0.229807
v 0.427395 0.765542 0.180520
v 0.396911 1.213740 0.310697
v 0.427395 0.867921 -0.171971
v 0.396911 1.316119 -0.041794
v 0.061605 0.736267 0.172018
v 0.031121 1.184466 0.302194
v 0.061605 0.838646 -0.180474
v 0.031121 1.286845 -0.050297
v 0.523692 0.182167 0.121104
v 0.484323 0.742557 0.140705
v 0.522517 0.194919 -0.245830
v 0.483148 0.755309 -0.226229
v 0.157371 0.150920 0.121191
v 0.118002 0.711311 0.140792
v 0.156196 0.163672 -0.245743
v 0.116827 0.724063 -0.226142
v 0.478897 -0.034848 0.362249
v 0.473874 0.113557 0.367734
v 0.476173 -0.005280 -0.235379
v 0.471149 0.143125 -0.229894
v 0.113808 -0.024603 0.362336
v 0.108784 0.082416 0.367821
v 0.111084 0.004965 -0.235293
v 0.106060 0.111983 -0.229807
vt 0.378902 0.189451
vt 0.189451 0.189451
vt 0.189451 0.000000
vt 0.378902 0.000000
vt 0.378522 0.378902
vt 0.189261 0.378902
vt 0.189261 0.189451
vt 0.378522 0.189451
vt 0.189451 0.189451
vt 0.000000 0.189451
vt 0.000000 0.000000
vt 0.189451 0.000000
vt 0.189261 0.378902
vt 0.000000 0.378902
vt 0.000000 0.189451
vt 0.189261 0.189451
vt 0.567776 0.189451
vt 0.567776 0.378902
vt 0.378522 0.378902
vt 0.378522 0.189451
vt 0.568155 0.000000
vt 0.568155 0.189451
vt 0.378902 0.189451
vt 0.378902 0.000000
vt 0.959310 0.877535
vt 0.959310 0.945150
vt 0.905864 0.945150
vt 0.905864 0.877535
vt 0.985656 0.000000
vt 0.985656 0.067547
vt 0.932210 0.067547
vt 0.932210 0.000000
vt 0.304884 0.911205
vt 0.304884 0.978819
vt 0.251438 0.978819
vt 0.251438 0.911205
vt 0.989526 0.750077
vt 0.989526 0.817624
vt 0.936080 0.817624
vt 0.936080 0.750077
vt 0.733634 0.929958
vt 0.733634 0.983404
vt 0.680244 0.983404
vt 0.680244 0.929958
vt 0.137217 0.931397
vt 0.137217 0.984842
vt 0.083828 0.984842
vt 0.083828 0.931397
vt 0.834982 0.877535
vt 0.905864 0.877536
vt 0.905864 0.950377
vt 0.834982 0.950376
vt 0.735440 0.106555
vt 0.808212 0.106588
vt 0.808212 0.179425
vt 0.735440 0.179392
vt 0.878289 0.116406
vt 0.949198 0.116407
vt 0.949198 0.189247
vt 0.878289 0.189247
vt 0.754365 0.296039
vt 0.827137 0.296006
vt 0.827137 0.368843
vt 0.754365 0.368876
vt 0.481207 0.945713
vt 0.410311 0.944949
vt 0.410311 0.872185
vt 0.481207 0.872949
vt 0.167633 0.858632
vt 0.238529 0.857867
vt 0.238529 0.930631
vt 0.167633 0.931396
vt 0.956174 0.945150
vt 0.956174 0.998714
vt 0.905864 0.998714
vt 0.905864 0.945150
vt 0.878289 0.000000
vt 0.932210 0.000013
vt 0.932210 0.116406
vt 0.878289 0.116393
vt 0.544540 0.932266
vt 0.544540 0.985840
vt 0.494229 0.985841
vt 0.494229 0.932266
vt 0.882159 0.750090
vt 0.936080 0.750077
vt 0.936080 0.866470
vt 0.882159 0.866483
vt 0.943460 0.189451
vt 0.943460 0.304974
vt 0.893202 0.305257
vt 0.893202 0.189734
vt 0.628268 0.847424
vt 0.628268 0.962946
vt 0.578011 0.962663
vt 0.578011 0.847140
vt 0.000000 0.953401
vt 0.000000 0.880561
vt 0.070882 0.880560
vt 0.070882 0.953401
vt 0.669659 0.659801
vt 0.669659 0.732638
vt 0.596888 0.732670
vt 0.596888 0.659834
vt 0.834982 0.877535
vt 0.834982 0.950376
vt 0.764072 0.950376
vt 0.764072 0.877536
vt 0.680244 0.929925
vt 0.680244 0.857089
vt 0.753016 0.857121
vt 0.753016 0.929958
vt 0.378548 0.874203
vt 0.378548 0.946968
vt 0.307653 0.947732
vt 0.307653 0.874967
vt 0.083828 0.930631
vt 0.083828 0.857867
vt 0.154724 0.858632
vt 0.154724 0.931396
vt 0.936080 0.817624
vt 0.986391 0.817624
vt 0.986391 0.871188
vt 0.936080 0.871188
vt 0.251438 0.911205
vt 0.251438 0.794812
vt 0.305360 0.794799
vt 0.305360 0.911192
vt 0.167633 0.931396
vt 0.217944 0.931396
vt 0.217944 0.984971
vt 0.167633 0.984971
vt 0.878251 0.600236
vt 0.878251 0.483843
vt 0.932173 0.483856
vt 0.932173 0.600249
vt 0.678525 0.962946
vt 0.628268 0.962663
vt 0.628268 0.847140
vt 0.678525 0.847423
vt 0.953143 0.738200
vt 0.902886 0.738483
vt 0.902886 0.622961
vt 0.953143 0.622677
vt 0.410311 0.523151
vt 0.410311 0.661042
vt 0.307653 0.661042
vt 0.307653 0.523151
vt 0.137753 0.523151
vt 0.000000 0.523151
vt 0.000000 0.378902
vt 0.137753 0.378902
vt 0.567776 0.327343
vt 0.567776 0.189451
vt 0.670434 0.189451
vt 0.670434 0.327343
vt 0.275507 0.523151
vt 0.137754 0.523151
vt 0.137754 0.378902
vt 0.275507 0.378902
vt 0.102551 0.523151
vt 0.102551 0.667399
vt 0.000000 0.667399
vt 0.000000 0.523151
vt 0.205102 0.523151
vt 0.205102 0.667399
vt 0.102551 0.667399
vt 0.102551 0.523151
vt 0.893260 0.316851
vt 0.893260 0.375862
vt 0.838170 0.375862
vt 0.838170 0.316851
vt 0.878289 0.127458
vt 0.819246 0.127452
vt 0.819246 0.000000
vt 0.878289 0.000006
vt 0.706599 0.129584
vt 0.706599 0.188601
vt 0.651509 0.188601
vt 0.651509 0.129584
vt 0.882159 0.877529
vt 0.823115 0.877535
vt 0.823115 0.750084
vt 0.882159 0.750077
vt 0.251438 0.794799
vt 0.251438 0.667537
vt 0.306471 0.667399
vt 0.306471 0.794661
vt 0.902886 0.622815
vt 0.902886 0.750077
vt 0.847854 0.749939
vt 0.847854 0.622677
vt 0.819246 0.127458
vt 0.874336 0.127458
vt 0.874336 0.186470
vt 0.819246 0.186469
vt 0.823219 0.483843
vt 0.823219 0.611294
vt 0.764175 0.611301
vt 0.764175 0.483849
vt 0.725524 0.378052
vt 0.670434 0.378052
vt 0.670434 0.319035
vt 0.725524 0.319035
vt 0.823115 0.750084
vt 0.823115 0.877535
vt 0.764072 0.877529
vt 0.764072 0.750077
vt 0.878251 0.611242
vt 0.823219 0.611104
vt 0.823219 0.483843
vt 0.878251 0.483980
vt 0.893202 0.316713
vt 0.838170 0.316851
vt 0.838170 0.189589
vt 0.893202 0.189451
vt 0.596888 0.523151
vt 0.596888 0.632675
vt 0.494229 0.632675
vt 0.494229 0.523151
vt 0.494337 0.523151
vt 0.384922 0.523151
vt 0.384922 0.378902
vt 0.494337 0.378902
vt 0.596888 0.632675
vt 0.596888 0.742200
vt 0.494229 0.742200
vt 0.494229 0.632675
vt 0.384922 0.523151
vt 0.275507 0.523151
vt 0.275507 0.378902
vt 0.384922 0.378902
vt 0.596888 0.378902
vt 0.596888 0.523151
vt 0.494337 0.523151
vt 0.494337 0.378902
vt 0.307653 0.523151
vt 0.307653 0.667399
vt 0.205102 0.667399
vt 0.205102 0.523151
vt 0.735440 0.106554
vt 0.735440 0.000000
vt 0.819246 0.000001
vt 0.819246 0.106555
vt 0.578011 0.743348
vt 0.578011 0.847140
vt 0.494229 0.845992
vt 0.494229 0.742200
vt 0.083828 0.773965
vt 0.083828 0.667399
vt 0.167633 0.667400
vt 0.167633 0.773966
vt 0.764175 0.483843
vt 0.764175 0.380051
vt 0.847957 0.378902
vt 0.847957 0.482694
vt 0.494229 0.930672
vt 0.494229 0.847140
vt 0.575678 0.848734
vt 0.575678 0.932265
vt 0.389102 0.789079
vt 0.389102 0.872610
vt 0.307653 0.874203
vt 0.307653 0.790672
vt 0.083828 0.667418
vt 0.083828 0.795435
vt 0.000000 0.795416
vt 0.000000 0.667399
vt 0.764175 0.380153
vt 0.764175 0.508486
vt 0.680244 0.507236
vt 0.680244 0.378902
vt 0.494139 0.660233
vt 0.494139 0.788265
vt 0.410311 0.788284
vt 0.410311 0.660252
vt 0.735440 0.000000
vt 0.735440 0.128334
vt 0.651509 0.129584
vt 0.651509 0.001251
vt 0.251271 0.857867
vt 0.167633 0.857789
vt 0.167633 0.773966
vt 0.251271 0.774044
vt 0.763882 0.857010
vt 0.680244 0.857089
vt 0.680244 0.773266
vt 0.763882 0.773187
vt 0.929405 0.326989
vt 0.963308 0.327412
vt 0.963308 0.464027
vt 0.929405 0.463604
vt 0.993234 0.961084
vt 0.959310 0.961084
vt 0.963589 0.877535
vt 0.988080 0.877854
vt 0.963308 0.326989
vt 0.987775 0.327032
vt 0.987775 0.463647
vt 0.963308 0.463604
vt 0.954353 0.106018
vt 0.978843 0.105699
vt 0.983123 0.189247
vt 0.949198 0.189247
vt 0.410311 0.523617
vt 0.493666 0.523151
vt 0.493666 0.659766
vt 0.410311 0.660233
vt 0.680244 0.515552
vt 0.596888 0.515518
vt 0.596888 0.378902
vt 0.680244 0.378937
vt 0.754365 0.189452
vt 0.838170 0.189451
vt 0.838170 0.296005
vt 0.754365 0.296006
vt 0.661792 0.845992
vt 0.578011 0.847140
vt 0.578011 0.743348
vt 0.661792 0.742200
vt 0.167633 0.667400
vt 0.251438 0.667399
vt 0.251438 0.773965
vt 0.167633 0.773966
vt 0.764072 0.645136
vt 0.847854 0.646285
vt 0.847854 0.750077
vt 0.764072 0.748929
vt 0.929405 0.462434
vt 0.847957 0.464027
vt 0.847957 0.380495
vt 0.929405 0.378902
vt 0.081449 0.880560
vt 0.000000 0.878967
vt 0.000000 0.795435
vt 0.081449 0.797028
vt 0.307653 0.661061
vt 0.391480 0.661042
vt 0.391480 0.789060
vt 0.307653 0.789079
vt 0.764175 0.643886
vt 0.680244 0.645136
vt 0.680244 0.516803
vt 0.764175 0.515552
vt 0.764072 0.773187
vt 0.680244 0.773169
vt 0.680244 0.645137
vt 0.764072 0.645155
vt 0.754365 0.319035
vt 0.670434 0.317785
vt 0.670434 0.189451
vt 0.754365 0.190702
vt 0.410311 0.872185
vt 0.410311 0.788362
vt 0.493949 0.788284
vt 0.493949 0.872107
vt 0.083828 0.857789
vt 0.083828 0.773966
vt 0.167466 0.774044
vt 0.167466 0.857867
vt 0.966075 0.483843
vt 0.966075 0.620458
vt 0.932173 0.620881
vt 0.932173 0.484266
vt 0.966075 0.567391
vt 0.971230 0.484162
vt 0.995720 0.483843
vt 1.000000 0.567391
vt 0.943460 0.326110
vt 0.943460 0.189494
vt 0.967927 0.189451
vt 0.967927 0.326066
vt 0.981913 0.622997
vt 0.987068 0.706226
vt 0.953143 0.706226
vt 0.957422 0.622677
vt 0.568155 0.136616
vt 0.568155 0.000000
vt 0.651509 0.000467
vt 0.651509 0.137082
vt 0.596888 0.659801
vt 0.596888 0.523185
vt 0.680244 0.523151
vt 0.680244 0.659766
vn -1.0000 0.0000 0.0000
vn 0.0000 0.0000 -1.0000
vn 1.0000 0.0000 0.0000
vn 0.0000 0.0000 1.0000
vn 0.0000 -1.0000 0.0000
vn 0.0000 1.0000 0.0000
vn -0.9733 0.2295 0.0000
vn 0.9733 -0.2295 0.0000
vn -0.2295 -0.9733 0.0000
vn 0.2295 0.9733 0.0000
vn -0.9925 0.1223 0.0000
vn 0.9925 -0.1223 0.0000
vn -0.1223 -0.9925 0.0000
vn 0.1223 0.9925 0.0000
vn 0.9733 0.2295 0.0000
vn -0.9733 -0.2295 0.0000
vn 0.2295 -0.9733 0.0000
vn -0.2295 0.9733 0.0000
vn 0.9925 0.1223 0.0000
vn -0.9925 -0.1223 0.0000
vn 0.1223 -0.9925 0.0000
vn -0.1223 0.9925 0.0000
vn -0.9985 0.0547 0.0000
vn 0.9985 -0.0547 0.0000
vn -0.0547 -0.9985 0.0000
vn 0.0547 0.9985 0.0000
vn 0.9985 0.0547 0.0000
vn -0.9985 -0.0547 0.0000
vn 0.0547 -0.9985 0.0000
vn -0.0547 0.9985 0.0000
vn -0.9979 0.0626 0.0182
vn 0.0000 0.2789 -0.9603
vn 0.9979 -0.0626 -0.0182
vn -0.0000 -0.2789 0.9603
vn -0.0830 -0.9570 -0.2780
vn 0.0830 0.9570 0.2780
vn -0.9975 0.0701 -0.0008
vn 0.0032 0.0347 -0.9994
vn 0.9975 -0.0701 0.0008
vn -0.0032 -0.0347 0.9994
vn -0.0849 -0.9958 -0.0349
vn 0.0849 0.9958 0.0349
vn -0.9994 0.0339 -0.0029
vn 0.0015 0.0429 -0.9991
vn 0.9989 -0.0470 0.0022
vn -0.0015 -0.0429 0.9991
vn 0.0280 -0.9984 -0.0493
vn 0.0849 0.9952 0.0496
vn 0.9979 0.0626 0.0182
vn -0.9979 -0.0626 -0.0182
vn 0.0830 -0.9570 -0.2780
vn -0.0830 0.9570 0.2780
vn 0.9975 0.0701 -0.0008
vn -0.0032 0.0347 -0.9994
vn -0.9975 -0.0701 0.0008
vn 0.0032 -0.0347 0.9994
vn 0.0849 -0.9958 -0.0349
vn -0.0849 0.9958 0.0349
vn 0.9994 0.0339 -0.0029
vn -0.0015 0.0429 -0.9991
vn -0.9989 -0.0470 0.0022
vn 0.0015 -0.0429 0.9991
vn -0.0280 -0.9984 -0.0493
vn -0.0849 0.9952 0.0496
usemtl Material.003
s off
f 1/1/1 2/2/1 4/3/1 3/4/1
f 3/5/2 4/6/2 8/7/2 7/8/2
f 7/9/3 8/10/3 6/11/3 5/12/3
f 5/13/4 6/14/4 2/15/4 1/16/4
f 3/17/5 7/18/5 5/19/5 1/20/5
f 8/21/6 4/22/6 2/23/6 6/24/6
f 9/25/1 10/26/1 12/27/1 11/28/1
f 11/29/2 12/30/2 16/31/2 15/32/2
f 15/33/3 16/34/3 14/35/3 13/36/3
f 13/37/4 14/38/4 10/39/4 9/40/4
f 11/41/5 15/42/5 13/43/5 9/44/5
f 16/45/6 12/46/6 10/47/6 14/48/6
f 25/49/7 26/50/7 28/51/7 27/52/7
f 27/53/2 28/54/2 32/55/2 31/56/2
f 31/57/8 32/58/8 30/59/8 29/60/8
f 29/61/4 30/62/4 26/63/4 25/64/4
f 27/65/9 31/66/9 29/67/9 25/68/9
f 32/69/10 28/70/10 26/71/10 30/72/10
f 41/73/11 42/74/11 44/75/11 43/76/11
f 43/77/2 44/78/2 48/79/2 47/80/2
f 47/81/12 48/82/12 46/83/12 45/84/12
f 45/85/4 46/86/4 42/87/4 41/88/4
f 43/89/13 47/90/13 45/91/13 41/92/13
f 48/93/14 44/94/14 42/95/14 46/96/14
f 49/97/15 51/98/15 52/99/15 50/100/15
f 51/101/2 55/102/2 56/103/2 52/104/2
f 55/105/16 53/106/16 54/107/16 56/108/16
f 53/109/4 49/110/4 50/111/4 54/112/4
f 51/113/17 49/114/17 53/115/17 55/116/17
f 56/117/18 54/118/18 50/119/18 52/120/18
f 65/121/19 67/122/19 68/123/19 66/124/19
f 67/125/2 71/126/2 72/127/2 68/128/2
f 71/129/20 69/130/20 70/131/20 72/132/20
f 69/133/4 65/134/4 66/135/4 70/136/4
f 67/137/21 65/138/21 69/139/21 71/140/21
f 72/141/22 70/142/22 66/143/22 68/144/22
usemtl Material.001
f 17/145/1 18/146/1 20/147/1 19/148/1
f 19/149/2 20/150/2 24/151/2 23/152/2
f 23/153/3 24/154/3 22/155/3 21/156/3
f 21/157/4 22/158/4 18/159/4 17/160/4
f 19/161/5 23/162/5 21/163/5 17/164/5
f 24/165/6 20/166/6 18/167/6 22/168/6
f 33/169/23 34/170/23 36/171/23 35/172/23
f 35/173/2 36/174/2 40/175/2 39/176/2
f 39/177/24 40/178/24 38/179/24 37/180/24
f 37/181/4 38/182/4 34/183/4 33/184/4
f 35/185/25 39/186/25 37/187/25 33/188/25
f 40/189/26 36/190/26 34/191/26 38/192/26
f 57/193/27 59/194/27 60/195/27 58/196/27
f 59/197/2 63/198/2 64/199/2 60/200/2
f 63/201/28 61/202/28 62/203/28 64/204/28
f 61/205/4 57/206/4 58/207/4 62/208/4
f 59/209/29 57/210/29 61/211/29 63/212/29
f 64/213/30 62/214/30 58/215/30 60/216/30
f 73/217/1 74/218/1 76/219/1 75/220/1
f 75/221/2 76/222/2 80/223/2 79/224/2
f 79/225/3 80/226/3 78/227/3 77/228/3
f 77/229/4 78/230/4 74/231/4 73/232/4
f 75/233/5 79/234/5 77/235/5 73/236/5
f 80/237/6 76/238/6 74/239/6 78/240/6
usemtl Material.002
f 81/241/31 82/242/31 84/243/31 83/244/31
f 83/245/32 84/246/32 88/247/32 87/248/32
f 87/249/33 88/250/33 86/251/33 85/252/33
f 85/253/34 86/254/34 82/255/34 81/256/34
f 83/257/35 87/258/35 85/259/35 81/260/35
f 88/261/36 84/262/36 82/263/36 86/264/36
f 89/265/37 90/266/37 92/267/37 91/268/37
f 91/269/38 92/270/38 96/271/38 95/272/38
f 95/273/39 96/274/39 94/275/39 93/276/39
f 93/277/40 94/278/40 90/279/40 89/280/40
f 91/281/41 95/282/41 93/283/41 89/284/41
f 96/285/42 92/286/42 90/287/42 94/288/42
f 97/289/43 98/290/43 100/291/43 99/292/43
f 99/293/44 100/294/44 104/295/44 103/296/44
f 103/297/45 104/298/45 102/299/45 101/300/45
f 101/301/46 102/302/46 98/303/46 97/304/46
f 99/305/47 103/306/47 101/307/47 97/308/47
f 104/309/48 100/310/48 98/311/48 102/312/48
f 105/313/49 107/314/49 108/315/49 106/316/49
f 107/317/32 111/318/32 112/319/32 108/320/32
f 111/321/50 109/322/50 110/323/50 112/324/50
f 109/325/34 105/326/34 106/327/34 110/328/34
f 107/329/51 105/330/51 109/331/51 111/332/51
f 112/333/52 110/334/52 106/335/52 108/336/52
f 113/337/53 115/338/53 116/339/53 114/340/53
f 115/341/54 119/342/54 120/343/54 116/344/54
f 119/345/55 117/346/55 118/347/55 120/348/55
f 117/349/56 113/350/56 114/351/56 118/352/56
f 115/353/57 113/354/57 117/355/57 119/356/57
f 120/357/58 118/358/58 114/359/58 116/360/58
f 121/361/59 123/362/59 124/363/59 122/364/59
f 123/365/60 127/366/60 128/367/60 124/368/60
f 127/369/61 125/370/61 126/371/61 128/372/61
f 125/373/62 121/374/62 122/375/62 126/376/62
f 123/377/63 121/378/63 125/379/63 127/380/63
f 128/381/64 126/382/64 122/383/64 124/384/64
