# Blender v3.0.0 OBJ File: ''
# www.blender.org
mtllib untitled.mtl
o Cube_Cube.029
v -0.414887 2.698493 0.559997
v -0.414887 3.528267 0.559997
v -0.414887 2.698493 -0.269777
v -0.414887 3.528267 -0.269777
v 0.414887 2.698493 0.559997
v 0.414887 3.528267 0.559997
v 0.414887 2.698493 -0.269777
v 0.414887 3.528267 -0.269777
v -0.117043 2.442596 0.262153
v -0.117043 2.738740 0.262153
v -0.117043 2.442596 0.028067
v -0.117043 2.738740 0.028067
v 0.117043 2.442596 0.262153
v 0.117043 2.738740 0.262153
v 0.117043 2.442596 0.028067
v 0.117043 2.738740 0.028067
v -0.315896 1.860189 0.369926
v -0.315896 2.464139 0.369926
v -0.315896 1.860189 -0.079706
v -0.315896 2.464139 -0.079706
v 0.315896 1.860189 0.369926
v 0.315896 2.464139 0.369926
v 0.315896 1.860189 -0.079706
v 0.315896 2.464139 -0.079706
v 1.387030 2.093315 0.300262
v 1.460257 2.403831 0.300262
v 1.387030 2.093315 -0.018771
v 1.460257 2.403831 -0.018771
v 1.697546 2.020089 0.300262
v 1.770773 2.330605 0.300262
v 1.697546 2.020089 -0.018771
v 1.770773 2.330605 -0.018771
v 0.306174 2.219707 0.247828
v 0.320333 2.478181 0.247828
v 0.306174 2.219707 0.006540
v 0.320333 2.478181 0.006540
v 0.863564 2.189174 0.247828
v 0.877723 2.447648 0.247828
v 0.863564 2.189174 0.006540
v 0.877723 2.447648 0.006540
v 0.870022 2.193331 0.237361
v 0.898939 2.427959 0.237361
v 0.870022 2.193331 0.017007
v 0.898939 2.427959 0.017007
v 1.375989 2.130970 0.237361
v 1.404907 2.365599 0.237361
v 1.375989 2.130970 0.017007
v 1.404907 2.365599 0.017007
v -1.387031 2.093315 0.300262
v -1.460257 2.403831 0.300262
v -1.387031 2.093315 -0.018771
v -1.460257 2.403831 -0.018771
v -1.697547 2.020089 0.300262
v -1.770773 2.330605 0.300262
v -1.697547 2.020089 -0.018771
v -1.770773 2.330605 -0.018771
v -0.306175 2.219707 0.247828
v -0.320334 2.478181 0.247828
v -0.306175 2.219707 0.006540
v -0.320334 2.478181 0.006540
v -0.863565 2.189174 0.247828
v -0.877724 2.447648 0.247828
v -0.863565 2.189174 0.006540
v -0.877724 2.447648 0.006540
v -0.870022 2.193331 0.237361
v -0.898940 2.427959 0.237361
v -0.870022 2.193331 0.017007
v -0.898940 2.427959 0.017007
v -1.375989 2.130970 0.237361
v -1.404908 2.365599 0.237361
v -1.375989 2.130970 0.017007
v -1.404908 2.365599 0.017007
v -0.315896 1.324528 0.369926
v -0.315896 1.804233 0.369926
v -0.315896 1.324528 -0.079706
v -0.315896 1.804233 -0.079706
v 0.315896 1.324528 0.369926
v 0.315896 1.804233 0.369926
v 0.315896 1.324528 -0.079706
v 0.315896 1.804233 -0.079706
v -0.427395 0.765542 0.180520
v -0.396911 1.213740 0.310697
v -0.427395 0.867921 -0.171971
v -0.396911 1.316119 -0.041794
v -0.061605 0.736267 0.172018
v -0.031121 1.184466 0.302194
v -0.061605 0.838646 -0.180474
v -0.031121 1.286845 -0.050297
v -0.523692 0.182167 0.121104
v -0.484323 0.742557 0.140705
v -0.522518 0.194919 -0.245830
v -0.483148 0.755309 -0.226229
v -0.157371 0.150920 0.121191
v -0.118002 0.711311 0.140792
v -0.156196 0.163672 -0.245743
v -0.116827 0.724063 -0.226142
v -0.478897 -0.034848 0.362249
v -0.473874 0.113557 0.367734
v -0.476173 -0.005280 -0.235379
v -0.471149 0.143125 -0.229894
v -0.113808 -0.024603 0.362336
v -0.108784 0.082416 0.367821
v -0.111084 0.004965 -0.235293
v -0.106060 0.111983 -0.229807
v 0.427395 0.765542 0.180520
v 0.396911 1.213740 0.310697
v 0.427395 0.867921 -0.171971
v 0.396911 1.316119 -0.041794
v 0.061605 0.736267 0.172018
v 0.031121 1.184466 0.302194
v 0.061605 0.838646 -0.180474
v 0.031121 1.286845 -0.050297
v 0.523692 0.182167 0.121104
v 0.484323 0.742557 0.140705
v 0.522517 0.194919 -0.245830
v 0.483148 0.755309 -0.226229
v 0.157371 0.150920 0.121191
v 0.118002 0.711311 0.140792
v 0.156196 0.163672 -0.245743
v 0.116827 0.724063 -0.226142
v 0.478897 -0.034848 0.362249
v 0.473874 0.113557 0.367734
v 0.476173 -0.005280 -0.235379
v 0.471149 0.143125 -0.229894
v 0.113808 -0.024603 0.362336
v 0.108784 0.082416 0.367821
v 0.111084 0.004965 -0.235293
v 0.106060 0.111983 -0.229807
vt 0.375000 0.000000
vt 0.625000 0.000000
vt 0.625000 0.250000
vt 0.375000 0.250000
vt 0.625000 0.500000
vt 0.375000 0.500000
vt 0.625000 0.750000
vt 0.375000 0.750000
vt 0.625000 1.000000
vt 0.375000 1.000000
vt 0.125000 0.500000
vt 0.125000 0.750000
vt 0.875000 0.500000
vt 0.875000 0.750000
vt 0.375000 0.000000
vt 0.625000 0.000000
vt 0.625000 0.250000
vt 0.375000 0.250000
vt 0.625000 0.500000
vt 0.375000 0.500000
vt 0.625000 0.750000
vt 0.375000 0.750000
vt 0.625000 1.000000
vt 0.375000 1.000000
vt 0.125000 0.500000
vt 0.125000 0.750000
vt 0.875000 0.500000
vt 0.875000 0.750000
vt 0.375000 0.000000
vt 0.625000 0.000000
vt 0.625000 0.250000
vt 0.375000 0.250000
vt 0.625000 0.500000
vt 0.375000 0.500000
vt 0.625000 0.750000
vt 0.375000 0.750000
vt 0.625000 1.000000
vt 0.375000 1.000000
vt 0.125000 0.500000
vt 0.125000 0.750000
vt 0.875000 0.500000
vt 0.875000 0.750000
vt 0.375000 0.000000
vt 0.625000 0.000000
vt 0.625000 0.250000
vt 0.375000 0.250000
vt 0.625000 0.500000
vt 0.375000 0.500000
vt 0.625000 0.750000
vt 0.375000 0.750000
vt 0.625000 1.000000
vt 0.375000 1.000000
vt 0.125000 0.500000
vt 0.125000 0.750000
vt 0.875000 0.500000
vt 0.875000 0.750000
vt 0.375000 0.000000
vt 0.625000 0.000000
vt 0.625000 0.250000
vt 0.375000 0.250000
vt 0.625000 0.500000
vt 0.375000 0.500000
vt 0.625000 0.750000
vt 0.375000 0.750000
vt 0.625000 1.000000
vt 0.375000 1.000000
vt 0.125000 0.500000
vt 0.125000 0.750000
vt 0.875000 0.500000
vt 0.875000 0.750000
vt 0.375000 0.000000
vt 0.625000 0.000000
vt 0.625000 0.250000
vt 0.375000 0.250000
vt 0.625000 0.500000
vt 0.375000 0.500000
vt 0.625000 0.750000
vt 0.375000 0.750000
vt 0.625000 1.000000
vt 0.375000 1.000000
vt 0.125000 0.500000
vt 0.125000 0.750000
vt 0.875000 0.500000
vt 0.875000 0.750000
vt 0.375000 0.000000
vt 0.375000 0.250000
vt 0.625000 0.250000
vt 0.625000 0.000000
vt 0.375000 0.500000
vt 0.625000 0.500000
vt 0.375000 0.750000
vt 0.625000 0.750000
vt 0.375000 1.000000
vt 0.625000 1.000000
vt 0.125000 0.500000
vt 0.125000 0.750000
vt 0.875000 0.750000
vt 0.875000 0.500000
vt 0.375000 0.000000
vt 0.375000 0.250000
vt 0.625000 0.250000
vt 0.625000 0.000000
vt 0.375000 0.500000
vt 0.625000 0.500000
vt 0.375000 0.750000
vt 0.625000 0.750000
vt 0.375000 1.000000
vt 0.625000 1.000000
vt 0.125000 0.500000
vt 0.125000 0.750000
vt 0.875000 0.750000
vt 0.875000 0.500000
vt 0.375000 0.000000
vt 0.375000 0.250000
vt 0.625000 0.250000
vt 0.625000 0.000000
vt 0.375000 0.500000
vt 0.625000 0.500000
vt 0.375000 0.750000
vt 0.625000 0.750000
vt 0.375000 1.000000
vt 0.625000 1.000000
vt 0.125000 0.500000
vt 0.125000 0.750000
vt 0.875000 0.750000
vt 0.875000 0.500000
vt 0.375000 0.000000
vt 0.625000 0.000000
vt 0.625000 0.250000
vt 0.375000 0.250000
vt 0.625000 0.500000
vt 0.375000 0.500000
vt 0.625000 0.750000
vt 0.375000 0.750000
vt 0.625000 1.000000
vt 0.375000 1.000000
vt 0.125000 0.500000
vt 0.125000 0.750000
vt 0.875000 0.500000
vt 0.875000 0.750000
vt 0.375000 0.000000
vt 0.625000 0.000000
vt 0.625000 0.250000
vt 0.375000 0.250000
vt 0.625000 0.500000
vt 0.375000 0.500000
vt 0.625000 0.750000
vt 0.375000 0.750000
vt 0.625000 1.000000
vt 0.375000 1.000000
vt 0.125000 0.500000
vt 0.125000 0.750000
vt 0.875000 0.500000
vt 0.875000 0.750000
vt 0.375000 0.000000
vt 0.625000 0.000000
vt 0.625000 0.250000
vt 0.375000 0.250000
vt 0.625000 0.500000
vt 0.375000 0.500000
vt 0.625000 0.750000
vt 0.375000 0.750000
vt 0.625000 1.000000
vt 0.375000 1.000000
vt 0.125000 0.500000
vt 0.125000 0.750000
vt 0.875000 0.500000
vt 0.875000 0.750000
vt 0.375000 0.000000
vt 0.625000 0.000000
vt 0.625000 0.250000
vt 0.375000 0.250000
vt 0.625000 0.500000
vt 0.375000 0.500000
vt 0.625000 0.750000
vt 0.375000 0.750000
vt 0.625000 1.000000
vt 0.375000 1.000000
vt 0.125000 0.500000
vt 0.125000 0.750000
vt 0.875000 0.500000
vt 0.875000 0.750000
vt 0.375000 0.000000
vt 0.375000 0.250000
vt 0.625000 0.250000
vt 0.625000 0.000000
vt 0.375000 0.500000
vt 0.625000 0.500000
vt 0.375000 0.750000
vt 0.625000 0.750000
vt 0.375000 1.000000
vt 0.625000 1.000000
vt 0.125000 0.500000
vt 0.125000 0.750000
vt 0.875000 0.750000
vt 0.875000 0.500000
vt 0.375000 0.000000
vt 0.375000 0.250000
vt 0.625000 0.250000
vt 0.625000 0.000000
vt 0.375000 0.500000
vt 0.625000 0.500000
vt 0.375000 0.750000
vt 0.625000 0.750000
vt 0.375000 1.000000
vt 0.625000 1.000000
vt 0.125000 0.500000
vt 0.125000 0.750000
vt 0.875000 0.750000
vt 0.875000 0.500000
vt 0.375000 0.000000
vt 0.375000 0.250000
vt 0.625000 0.250000
vt 0.625000 0.000000
vt 0.375000 0.500000
vt 0.625000 0.500000
vt 0.375000 0.750000
vt 0.625000 0.750000
vt 0.375000 1.000000
vt 0.625000 1.000000
vt 0.125000 0.500000
vt 0.125000 0.750000
vt 0.875000 0.750000
vt 0.875000 0.500000
vn -1.0000 0.0000 0.0000
vn 0.0000 0.0000 -1.0000
vn 1.0000 0.0000 0.0000
vn 0.0000 0.0000 1.0000
vn 0.0000 -1.0000 0.0000
vn 0.0000 1.0000 0.0000
vn -0.9733 0.2295 0.0000
vn 0.9733 -0.2295 0.0000
vn -0.2295 -0.9733 0.0000
vn 0.2295 0.9733 0.0000
vn -0.9985 0.0547 0.0000
vn 0.9985 -0.0547 0.0000
vn -0.0547 -0.9985 0.0000
vn 0.0547 0.9985 0.0000
vn -0.9925 0.1223 0.0000
vn 0.9925 -0.1223 0.0000
vn -0.1223 -0.9925 0.0000
vn 0.1223 0.9925 0.0000
vn 0.9733 0.2295 0.0000
vn -0.9733 -0.2295 0.0000
vn 0.2295 -0.9733 0.0000
vn -0.2295 0.9733 0.0000
vn 0.9985 0.0547 0.0000
vn -0.9985 -0.0547 0.0000
vn 0.0547 -0.9985 0.0000
vn -0.0547 0.9985 0.0000
vn 0.9925 0.1223 0.0000
vn -0.9925 -0.1223 0.0000
vn 0.1223 -0.9925 0.0000
vn -0.1223 0.9925 0.0000
vn -0.9979 0.0626 0.0182
vn 0.0000 0.2789 -0.9603
vn 0.9979 -0.0626 -0.0182
vn -0.0000 -0.2789 0.9603
vn -0.0830 -0.9570 -0.2780
vn 0.0830 0.9570 0.2780
vn -0.9975 0.0701 -0.0008
vn 0.0032 0.0347 -0.9994
vn 0.9975 -0.0701 0.0008
vn -0.0032 -0.0347 0.9994
vn -0.0849 -0.9958 -0.0349
vn 0.0849 0.9958 0.0349
vn -0.9994 0.0339 -0.0029
vn 0.0015 0.0429 -0.9991
vn 0.9989 -0.0470 0.0022
vn -0.0015 -0.0429 0.9991
vn 0.0280 -0.9984 -0.0493
vn 0.0849 0.9952 0.0496
vn 0.9979 0.0626 0.0182
vn -0.9979 -0.0626 -0.0182
vn 0.0830 -0.9570 -0.2780
vn -0.0830 0.9570 0.2780
vn 0.9975 0.0701 -0.0008
vn -0.0032 0.0347 -0.9994
vn -0.9975 -0.0701 0.0008
vn 0.0032 -0.0347 0.9994
vn 0.0849 -0.9958 -0.0349
vn -0.0849 0.9958 0.0349
vn 0.9994 0.0339 -0.0029
vn -0.0015 0.0429 -0.9991
vn -0.9989 -0.0470 0.0022
vn 0.0015 -0.0429 0.9991
vn -0.0280 -0.9984 -0.0493
vn -0.0849 0.9952 0.0496
usemtl None
s off
f 1/1/1 2/2/1 4/3/1 3/4/1
f 3/4/2 4/3/2 8/5/2 7/6/2
f 7/6/3 8/5/3 6/7/3 5/8/3
f 5/8/4 6/7/4 2/9/4 1/10/4
f 3/11/5 7/6/5 5/8/5 1/12/5
f 8/5/6 4/13/6 2/14/6 6/7/6
f 9/15/1 10/16/1 12/17/1 11/18/1
f 11/18/2 12/17/2 16/19/2 15/20/2
f 15/20/3 16/19/3 14/21/3 13/22/3
f 13/22/4 14/21/4 10/23/4 9/24/4
f 11/25/5 15/20/5 13/22/5 9/26/5
f 16/19/6 12/27/6 10/28/6 14/21/6
f 17/29/1 18/30/1 20/31/1 19/32/1
f 19/32/2 20/31/2 24/33/2 23/34/2
f 23/34/3 24/33/3 22/35/3 21/36/3
f 21/36/4 22/35/4 18/37/4 17/38/4
f 19/39/5 23/34/5 21/36/5 17/40/5
f 24/33/6 20/41/6 18/42/6 22/35/6
f 25/43/7 26/44/7 28/45/7 27/46/7
f 27/46/2 28/45/2 32/47/2 31/48/2
f 31/48/8 32/47/8 30/49/8 29/50/8
f 29/50/4 30/49/4 26/51/4 25/52/4
f 27/53/9 31/48/9 29/50/9 25/54/9
f 32/47/10 28/55/10 26/56/10 30/49/10
f 33/57/11 34/58/11 36/59/11 35/60/11
f 35/60/2 36/59/2 40/61/2 39/62/2
f 39/62/12 40/61/12 38/63/12 37/64/12
f 37/64/4 38/63/4 34/65/4 33/66/4
f 35/67/13 39/62/13 37/64/13 33/68/13
f 40/61/14 36/69/14 34/70/14 38/63/14
f 41/71/15 42/72/15 44/73/15 43/74/15
f 43/74/2 44/73/2 48/75/2 47/76/2
f 47/76/16 48/75/16 46/77/16 45/78/16
f 45/78/4 46/77/4 42/79/4 41/80/4
f 43/81/17 47/76/17 45/78/17 41/82/17
f 48/75/18 44/83/18 42/84/18 46/77/18
f 49/85/19 51/86/19 52/87/19 50/88/19
f 51/86/2 55/89/2 56/90/2 52/87/2
f 55/89/20 53/91/20 54/92/20 56/90/20
f 53/91/4 49/93/4 50/94/4 54/92/4
f 51/95/21 49/96/21 53/91/21 55/89/21
f 56/90/22 54/92/22 50/97/22 52/98/22
f 57/99/23 59/100/23 60/101/23 58/102/23
f 59/100/2 63/103/2 64/104/2 60/101/2
f 63/103/24 61/105/24 62/106/24 64/104/24
f 61/105/4 57/107/4 58/108/4 62/106/4
f 59/109/25 57/110/25 61/105/25 63/103/25
f 64/104/26 62/106/26 58/111/26 60/112/26
f 65/113/27 67/114/27 68/115/27 66/116/27
f 67/114/2 71/117/2 72/118/2 68/115/2
f 71/117/28 69/119/28 70/120/28 72/118/28
f 69/119/4 65/121/4 66/122/4 70/120/4
f 67/123/29 65/124/29 69/119/29 71/117/29
f 72/118/30 70/120/30 66/125/30 68/126/30
f 73/127/1 74/128/1 76/129/1 75/130/1
f 75/130/2 76/129/2 80/131/2 79/132/2
f 79/132/3 80/131/3 78/133/3 77/134/3
f 77/134/4 78/133/4 74/135/4 73/136/4
f 75/137/5 79/132/5 77/134/5 73/138/5
f 80/131/6 76/139/6 74/140/6 78/133/6
f 81/141/31 82/142/31 84/143/31 83/144/31
f 83/144/32 84/143/32 88/145/32 87/146/32
f 87/146/33 88/145/33 86/147/33 85/148/33
f 85/148/34 86/147/34 82/149/34 81/150/34
f 83/151/35 87/146/35 85/148/35 81/152/35
f 88/145/36 84/153/36 82/154/36 86/147/36
f 89/155/37 90/156/37 92/157/37 91/158/37
f 91/158/38 92/157/38 96/159/38 95/160/38
f 95/160/39 96/159/39 94/161/39 93/162/39
f 93/162/40 94/161/40 90/163/40 89/164/40
f 91/165/41 95/160/41 93/162/41 89/166/41
f 96/159/42 92/167/42 90/168/42 94/161/42
f 97/169/43 98/170/43 100/171/43 99/172/43
f 99/172/44 100/171/44 104/173/44 103/174/44
f 103/174/45 104/173/45 102/175/45 101/176/45
f 101/176/46 102/175/46 98/177/46 97/178/46
f 99/179/47 103/174/47 101/176/47 97/180/47
f 104/173/48 100/181/48 98/182/48 102/175/48
f 105/183/49 107/184/49 108/185/49 106/186/49
f 107/184/32 111/187/32 112/188/32 108/185/32
f 111/187/50 109/189/50 110/190/50 112/188/50
f 109/189/34 105/191/34 106/192/34 110/190/34
f 107/193/51 105/194/51 109/189/51 111/187/51
f 112/188/52 110/190/52 106/195/52 108/196/52
f 113/197/53 115/198/53 116/199/53 114/200/53
f 115/198/54 119/201/54 120/202/54 116/199/54
f 119/201/55 117/203/55 118/204/55 120/202/55
f 117/203/56 113/205/56 114/206/56 118/204/56
f 115/207/57 113/208/57 117/203/57 119/201/57
f 120/202/58 118/204/58 114/209/58 116/210/58
f 121/211/59 123/212/59 124/213/59 122/214/59
f 123/212/60 127/215/60 128/216/60 124/213/60
f 127/215/61 125/217/61 126/218/61 128/216/61
f 125/217/62 121/219/62 122/220/62 126/218/62
f 123/221/63 121/222/63 125/217/63 127/215/63
f 128/216/64 126/218/64 122/223/64 124/224/64
